<?xml version="1.0" standalone="no"?><svg xmlns="http://www.w3.org/2000/svg" viewBox="0 0 1440 320"><path fill="#0099ff" fill-opacity="1" d="M0,256L21.8,229.3C43.6,203,87,149,131,133.3C174.5,117,218,139,262,154.7C305.5,171,349,181,393,186.7C436.4,192,480,192,524,160C567.3,128,611,64,655,42.7C698.2,21,742,43,785,58.7C829.1,75,873,85,916,122.7C960,160,1004,224,1047,224C1090.9,224,1135,160,1178,165.3C1221.8,171,1265,245,1309,277.3C1352.7,309,1396,299,1418,293.3L1440,288L1440,320L1418.2,320C1396.4,320,1353,320,1309,320C1265.5,320,1222,320,1178,320C1134.5,320,1091,320,1047,320C1003.6,320,960,320,916,320C872.7,320,829,320,785,320C741.8,320,698,320,655,320C610.9,320,567,320,524,320C480,320,436,320,393,320C349.1,320,305,320,262,320C218.2,320,175,320,131,320C87.3,320,44,320,22,320L0,320Z"></path></svg>